<?xml version="1.0" encoding="utf-8"?>
<!-- Generator: Adobe Illustrator 19.1.0, SVG Export Plug-In . SVG Version: 6.00 Build 0)  -->
<svg version="1.2" baseProfile="tiny" xmlns="http://www.w3.org/2000/svg" xmlns:xlink="http://www.w3.org/1999/xlink" x="0px"
	 y="0px" viewBox="0 0 1040 1040" xml:space="preserve">
<g id="Layer_2">
</g>
<g id="Layer_1">
	<g>
		<path fill="#1D1D1B" d="M842.1,8H197.9C93,8,8,93,8,197.9v644.2C8,947,93,1032,197.9,1032h644.2c104.9,0,189.9-85,189.9-189.9
			V197.9C1032,93,947,8,842.1,8z M751.7,634.1c-102.2,68.1-217.1,97.4-337.5,65.9c-48.4-12.7-98.2-43.4-132.6-79.9
			C231.4,567,177.5,540.6,106,545.6c-32.6,2.3-65.3,2.8-98,4.2c0-20.1,0-40.3,0-60.4c45.2,1,90.5,1.2,135.6,3.1
			c52.7,2.2,91.5-23.1,123.7-61c66-77.9,150.2-110.7,251-103c84,6.4,163.9,27.1,233.7,76.1C852.6,475.1,853.8,566.1,751.7,634.1z"/>
		<path fill="#1D1D1B" d="M611.6,388.6c0,0-126.4-48.9-225.4-6c-19,9.7-20.9,18.9-16,26c5.6,8,17.6,8.6,35-5
			C423.4,389.5,512.6,357.6,611.6,388.6z"/>
	</g>
</g>
<g id="Plate_And_Cutlery_Outline">
</g>
<g id="Fork_Plate_Knife">
</g>
</svg>
